PathFileType	4	(X/Y/Z)	C:/Users/beibeiliu/ov580/test_trc/User1\sequence.28_training_dense_right.trc
DataRate	CameraRate	NumFrames	NumMarkers	Units	OrigDataRate	OrigDataStartFrame	OrigNumFrames
120	120	25	19	mm	120	34	67
Frame#	Time	ThumbCMC			ThumbMCP			ThumbIP			ThumbTip			IndexMCP			IndexPIP			IndexTip			MiddleMCP			MiddlePIP			MiddleTip			RingMCP			RingPIP			RingTip			PinkyMCP			PinkyPIP			PinkyTip			BackHand1			BackHand2			BackHand3	
		X0	Y0	Z0	X1	Y1	Z1	X2	Y2	Z2	X3	Y3	Z3	X4	Y4	Z4	X5	Y5	Z5	X6	Y6	Z6	X7	Y7	Z7	X8	Y8	Z8	X9	Y9	Z9	X10	Y10	Z10	X11	Y11	Z11	X12	Y12	Z12	X13	Y13	Z13	X14	Y14	Z14	X15	Y15	Z15	X16	Y16	Z16	X17	Y17	Z17	X18	Y18	Z18	
33	0.275	162.636	65.799	90.7892	132.692	90.3508	74.1141	105.223	85.1742	58.3382	80.2557	62.5526	53.61	141.656	48.5448	7.35761	128.508	46.6323	-12.5862	111.05	41.5572	-31.7062	123.6	25.155	8.70348	109.7	31.8191	-17.883	92.2469	35.8154	-40.0107	94.0023	25.4929	24.4027	74.731	46.9705	37.847	88.2735	47.4408	67.3342	86.5938	14.805	49.9795	76.9961	38.1882	65.3031	104.847	41.7803	88.9743	143.341	0.142817	64.5588	157.052	-3.00633	93.4811	170.869	28.7885	74.7916	
34	0.283333	173.745	65.0107	86.8128	148.254	86.816	60.3059	128.78	79.9289	43.2892	102.862	60.3551	31.3252	173.746	34.4751	10.2356	171.11	31.8661	-19.4425	160.664	25.2747	-38.556	163.136	16.8484	1.71419	154.927	15.3723	-23.4883	140.683	15.5334	-54.0425	127.585	17.9901	14.2453	104.206	39.0956	16.2163	111.484	50.9983	50.6283	111.406	10.7442	37.7097	98.522	35.4467	46.5426	118.547	44.7558	70.9131	158.374	-1.42339	69.6921	166.854	-0.599701	102.736	185.431	26.4156	77.8308	
35	0.291667	182.378	68.7147	89.6631	162.409	82.8318	51.0491	148.296	76.5117	27.3482	132.655	52.3406	17.1655	213.027	34.493	15.0677	211.734	24.7709	-7.52106	212.163	19.211	-33.2086	202.822	9.77796	8.26899	203.713	5.45477	-19.5681	197.012	0.74514	-49.6462	162.524	7.84395	11.1608	138.869	33.1132	2.92662	131.916	43.2231	36.3758	142.138	4.80495	26.7491	127.773	26.0546	28.5941	136.12	39.7918	58.502	184.418	1.5936	72.3467	179.731	3.57663	109.031	200.728	28.5188	86.3895	
36	0.3	180.186	72.246	87.7292	160.272	79.078	53.4141	156.116	67.0102	21.0227	148.445	42.7844	8.71439	227.557	49.4072	24.0898	237.172	47.109	-0.265681	238.388	37.6641	-25.2093	229.516	29.6319	15.6828	235.02	24.4225	-11.1571	237.727	23.1963	-45.4569	193.822	12.8542	11.5409	163.581	26.247	-1.09945	150.516	35.4862	28.1317	171.694	-2.28413	27.2968	146.177	19.2744	25.6034	148.722	34.8476	49.6131	202.762	10.3683	74.4611	197.539	10.4474	105.916	208.481	41.6078	93.8623	
37	0.308333	158.064	62.9808	93.3427	139.148	64.7139	54.037	144.719	54.5883	20.636	153.741	30.8751	6.56178	210.83	79.3335	29.1924	222.763	81.1991	5.42542	230.432	85.1805	-20.8375	226.613	61.4449	18.8857	234.421	63.0343	-9.31804	237.113	64.7281	-42.0501	207.977	31.4279	11.2238	174.721	27.8545	-3.32729	157.614	26.9172	23.0287	192.852	3.9757	22.9756	162.407	10.0674	23.1081	157.849	24.1651	51.815	214.86	26.8689	75.8532	209.754	18.7227	105.118	201.502	56.7799	91.4753	
38	0.316667	137.518	42.4607	95.6391	121.838	35.9324	55.9119	131.264	32.959	23.3281	149.474	18.5916	7.83111	171.987	91.2708	29.6356	177.424	102.356	7.59789	184.243	107.591	-18.4254	195.474	81.3414	21.5036	195.584	92.5396	-5.37544	196.643	99.0455	-38.5107	192.632	49.9693	9.25434	174.124	28.8386	-4.93001	158.171	15.3144	23.351	200.251	20.0998	23.5114	175.54	4.25799	20.0106	161.58	9.41056	49.3106	203.993	45.1469	75.654	203.288	35.993	105.487	178.675	61.7738	94.9826	
39	0.325	121.046	21.9665	98.9665	112.229	11.0663	57.8301	123.425	9.03106	30.353	143.483	0.579344	14.9757	133.388	72.7457	33.0648	134.474	85.1707	8.37906	137.758	92.4201	-18.9558	156.335	77.0906	18.2456	155.98	83.6472	-10.6435	154.942	86.3734	-41.6813	173.757	41.4953	8.47117	160.102	13.3268	0.267121	155.022	-0.591326	31.8464	187.049	21.6643	24.545	171.996	-4.94121	26.1158	161.244	-4.34433	57.5268	187.553	49.4493	74.2984	191.557	39.2742	108.115	153.563	55.4931	95.4364	
40	0.333333	110.147	15.8914	104.341	97.7101	-4.35996	72.431	105.408	-11.8819	43.3072	129.406	-17.6935	27.8981	112.295	49.8618	28.2194	113.419	52.4815	1.58836	113.423	54.6309	-28.3922	137.445	49.3251	12.9807	129.296	48.3649	-12.3236	125.448	46.3738	-45.2987	157.132	17.7327	13.7192	144.376	-14.0055	11.0031	145.435	-20.9218	43.8455	175.518	-0.18431	28.8955	160	-25.3497	38.6772	150.179	-19.7782	68.9861	168.839	41.1056	70.8756	177.832	40.4835	105.238	141.518	45.2568	93.2727	
41	0.341667	102.9	28.1252	110.95	76.2219	8.00881	87.7543	82.6168	-7.35795	58.9922	102.128	-26.7552	45.0431	99.8377	39.7546	26.5208	97.2848	34.0202	0.074403	93.0785	27.9385	-23.8836	118.355	27.3146	9.17403	111.194	18.8823	-14.2364	101.601	8.63684	-42.8915	129.594	-9.54901	18.7419	110.891	-32.4079	28.3263	118.877	-25.8181	64.5236	148.677	-24.1316	39.7094	124.614	-36.8325	58.2927	124.041	-23.5857	84.0333	161.171	25.8307	68.8075	169.853	27.957	98.1434	134.33	45.03	91.1941	
42	0.35	107.44	49.4254	107.038	71.5981	41.2832	92.7533	61.5045	18.4943	69.1832	68.6673	-11.5915	61.2034	96.711	36.6487	21.5183	87.8066	29.4149	2.05517	76.2677	19.3653	-19.9751	103.967	14.338	10.5188	90.0292	8.01908	-6.94952	70.332	-1.10435	-30.7285	95.8778	-11.737	31.6548	70.835	-22.9527	50.3914	83.5405	-11.7208	78.1936	108.079	-33.6157	53.485	85.1555	-31.5343	74.2456	97.9877	-8.08703	97.0082	148.398	8.69236	67.2846	163.161	11.6227	94.2095	137.708	42.1974	81.0032	
43	0.358333	121.919	62.3916	99.9646	85.2253	66.4474	87.9186	63.4658	49.8167	73.4543	53.8883	23.0981	71.4899	99.5545	38.7377	22.6974	82.1538	35.4306	-3.72337	66.2644	27.8867	-18.8131	93.081	16.3635	16.8762	71.973	17.0855	-4.78462	49.7367	12.9419	-22.3726	75.1376	-1.00167	37.4522	48.886	8.05041	60.3061	68.9073	9.96918	85.0167	74.0484	-20.0665	62.5605	60.9986	-1.7987	82.3201	84.5843	10.8509	100.331	132.976	-1.81775	68.6856	151.839	-1.982	93.4313	143.659	30.0999	78.5695	
44	0.366667	136.797	58.2317	90.561	105.806	77.0475	80.9338	78.7761	67.2636	69.1094	59.0154	44.8947	69.3023	108.38	39.604	12.7791	93.5831	38.7311	-5.34315	71.4734	30.9765	-22.9464	94.4463	20.0699	11.8167	73.6068	20.7491	-7.69653	51.2959	24.5449	-26.8688	69.6509	12.682	35.8935	50.6933	31.9192	55.6914	70.2367	30.692	81.0048	69.7762	0.0161786	61.3488	58.8881	19.713	80.943	85.8576	26.656	93.9012	126.142	-6.57593	65.1204	145.845	-8.95899	98.1409	150.183	24.0568	75.0195	
45	0.375	151.419	56.2288	86.9902	120.494	76.9097	69.7551	93.416	70.2473	54.9949	70.6198	46.9897	55.6892	130.803	32.5431	12.1556	117.6	33.8508	-12.8111	98.844	28.3936	-34.9652	116.854	15.5173	6.09375	101.369	18.5319	-15.5578	77.7339	19.668	-38.8846	91.6681	11.2463	27.5522	67.2585	34.267	39.3299	82.343	37.4042	68.6494	78.1219	0.405493	52.2559	70.5127	23.681	63.4252	92.5503	30.2924	89.3063	137.285	-6.47703	67.0672	152.236	-14.2239	100.008	163.035	21.0784	71.4136	
46	0.383333	164.177	57.5751	83.3377	136.321	70.556	59.0495	111.523	60.5046	36.8431	94.3528	39.8782	37.8728	163.985	25.0986	7.57117	154.839	16.5224	-17.4544	141.077	9.00357	-43.9693	150.989	1.42336	4.01552	141.598	0.88182	-24.9285	124.727	-0.882988	-50.9293	121.321	-1.24234	17.2491	93.8738	21.4453	18.9121	101.245	30.3607	50.5315	100.74	-10.6624	39.8993	88.7187	16.1924	50.616	109.094	26.5673	70.161	152.63	-14.739	66.207	163.57	-14.3663	99.8653	177.879	15.0293	76.4347	
47	0.391667	170.155	56.0453	85.4355	146.392	67.432	49.28	131.269	53.5412	25.7289	119.555	24.3745	23.8661	195.202	24.0507	13.4008	194.35	9.39258	-14.1315	190.341	4.97545	-39.8406	187.62	-6.36944	7.70094	187.166	-9.92888	-24.303	178.89	-13.0552	-54.4678	154.457	-12.1138	14.4773	122.623	4.80823	7.95409	122.05	19.0223	36.0405	132.552	-20.0154	33.7282	117.382	4.08052	34.0661	126.633	21.2235	58.2662	177.09	-14.7785	73.6404	178.502	-6.89271	108.665	192.571	21.4844	86.0424	
48	0.4	163.177	60.4782	86.5416	141.832	63.1701	49.9702	138.707	44.6099	21.7138	135.128	18.1902	14.3216	210.646	40.0791	14.9916	216.379	37.6609	-6.50338	216.696	25.4346	-32.3073	213.295	13.5852	11.0791	217.66	13.9576	-17.8904	215.363	8.75958	-49.913	185.362	-2.47288	11.1709	154.337	-0.146431	-0.151924	141.758	9.21473	34.9747	165.775	-22.2821	31.0241	137.805	-8.72259	28.8313	141.087	12.6896	53.1012	197.638	-2.76787	76.2377	194.286	-0.877218	107.637	198.605	35.1399	89.4018	
49	0.408333	143.791	46.6019	89.4775	127.796	42.0452	49.8822	130.092	31.4122	24.5732	146.906	9.32726	9.86507	189.809	67.3807	24.8933	200.613	70.5913	-4.1364	207.54	67.7278	-30.019	205.817	52.7026	18.5239	214.522	52.9078	-15.9211	213.859	52.9949	-43.5331	197.087	17.0507	10.5689	168.237	7.87323	-1.29107	152.928	2.19586	32.5412	191.623	-6.25377	28.1436	161.311	-13.2909	27.1778	149.939	2.38741	52.0446	207.458	20.8731	74.624	199.543	16.1662	107.287	185.922	48.5404	94.6919	
50	0.416667	117.956	25.1074	91.7796	106.765	12.4738	54.3752	117.582	9.82571	27.9626	143.786	3.29867	9.27659	142.497	77.0388	30.8679	147.722	86.9208	6.46156	155.21	91.4601	-17.914	166.641	74.3664	19.6399	166.924	80.1316	-5.70425	173.367	80.1654	-37.9109	179.876	36.9588	13.9236	163.335	10.8909	2.90977	156.321	-3.10411	36.5226	188.707	13.2725	28.9514	166.347	-5.33068	29.3306	155.955	-8.06456	58.8758	184.99	45.7972	75.9712	185.793	34.472	109.99	155.032	48.6378	99.5347	
51	0.425	97.1166	15.6849	105.896	86.4288	5.15417	66.6786	96.4701	0.447817	41.1524	120.786	-4.15272	22.9406	109.127	63.4713	35.5665	109.246	69.2876	10.2013	108.746	76.3676	-17.3347	130.949	64.0525	25.0421	126.129	68.4355	-3.48436	122.089	69.3121	-37.8799	150.518	29.5681	18.8344	133.245	-2.45033	15.5564	136.15	-9.24437	49.4821	162.78	9.48364	32.8783	150.088	-13.898	39.5931	137.809	-8.58047	73.6829	159.988	46.6169	77.7903	168.504	36.303	112.843	129.109	48.3233	104.018	
52	0.433333	85.5125	36.2338	118.184	60.1964	22.1981	87.8929	66.6229	9.75926	60.8084	80.3703	-8.82358	44.1007	88.8527	54.1551	31.6161	80.451	54.629	7.56894	78.9937	47.5298	-20.6309	105.605	43.646	18.9022	90.7564	41.1382	-2.31375	81.8807	32.4016	-32.2055	109.725	6.77364	25.6396	90.8802	-16.5892	37.5659	101.137	-11.5822	71.246	124.525	-11.2776	43.7005	104.64	-23.0491	62.0671	107.483	-6.13901	89.7392	146.957	31.1426	74.4487	154.393	29.1998	112.431	124.302	48.8906	101.626	
53	0.441667	99.3399	61.754	117.195	61.8894	61.0085	97.2288	51.1468	41.3803	77.8164	52.0938	9.61746	65.4593	83.577	53.1766	33.0377	68.5158	47.0371	13.1088	50.7468	37.1033	-6.19854	83.7803	33.7898	24.1059	59.8744	28.8456	4.14258	38.9015	21.2431	-11.4853	73.0754	0.229789	41.0106	51.3696	-3.38745	64.0158	73.0968	8.9214	90.7864	83.7032	-17.8597	62.056	66.6994	-13.1102	86.3976	85.0892	9.40443	103.501	132.983	12.3361	73.2553	148.968	14.9238	104.107	131.669	49.1338	91.411	
54	0.45	122.507	65.9057	107.542	88.2436	80.8829	95.5915	62.8554	66.3703	80.0621	47.5002	44.0555	80.193	82.049	53.1886	28.539	60.1436	54.4825	12.4919	38.2118	50.9702	3.17618	71.7196	34.9595	27.0478	44.3508	40.0243	14.9717	19.7542	44.1197	7.42566	56.2492	18.7841	53.2245	39.0515	25.6063	78.8461	64.557	29.9128	100.382	58.4707	0.88918	75.7052	54.584	16.5588	99.5108	86.1842	23.6702	112.173	117.748	5.94019	71.5008	141.493	0.747216	100.922	137.863	37.8474	79.336	
55	0.458333	139.215	64.0612	99.7781	108.371	86.316	88.2903	81.1123	82.0845	81.0011	59.8497	59.5016	81.6568	93.9227	58.9571	26.2533	70.6648	60.6808	12.683	47.8186	63.458	3.33892	77.7964	39.9386	26.3707	53.474	50.4566	15.0131	22.9038	59.7062	6.38461	60.9556	27.9583	53.0376	48.1573	51.4489	77.1732	70.7845	43.8567	101.237	60.9159	14.9622	74.8845	56.4512	33.7638	99.9472	87.5462	38.4201	109.513	116.855	3.32731	69.8393	140.319	-3.23295	99.515	145.813	33.4023	75.4941	
56	0.466667	151.362	61.915	94.4908	121.766	88.141	82.9831	94.8086	83.5372	71.5658	70.7505	67.2072	72.4471	109.674	54.3096	19.4847	92.9013	60.4055	4.00512	67.5803	64.3745	-11.1062	93.8709	37.8712	18.6136	71.7923	47.1137	5.10817	45.6988	60.1885	-8.55775	75.4966	33.2721	42.4096	55.7996	53.4548	63.8568	75.8	50.409	89.7654	70.0446	21.4042	65.332	62.4683	40.6145	87.7454	91.0053	40.035	105.176	123.724	1.12809	70.1556	144.931	-6.02622	96.8763	153.301	25.8184	73.7521	
57	0.475	157.668	59.1884	92.1198	128.343	82.6336	70.7006	100.82	78.6834	54.4926	81.8902	61.788	55.9153	133.377	42.8852	12.0278	115.802	42.2975	-9.34497	93.6726	44.0545	-27.7144	113.871	22.049	9.66024	95.7787	30.5958	-13.7749	72.8828	37.4553	-29.9933	90.1901	19.0408	30.0723	68.8771	43.8067	40.6618	85.4802	50.0559	71.2933	78.1212	11.5644	53.3047	73.7979	35.8797	67.1898	99.2435	39.4321	91.7816	137.472	-2.96156	67.9238	149.778	-9.50311	96.7464	163.207	19.4828	74.8524	
